<svg width="400" height="133" viewBox="0 0 400 133" fill="none" xmlns="http://www.w3.org/2000/svg">
<path d="M344.473 309.5C351.653 309.5 357.506 303.675 357.157 296.504C354.315 238.155 332.394 182.21 294.575 137.372C253.956 89.2143 197.616 56.9728 135.518 46.3496C73.4194 35.7264 9.56511 47.4059 -44.752 79.3227C-99.0692 111.239 -140.349 161.337 -161.291 220.754C-182.234 280.172 -181.488 345.081 -159.188 404.003C-136.887 462.924 -94.4679 512.06 -39.4324 542.722C15.603 573.383 79.7086 583.594 141.547 571.548C199.122 560.332 251.277 530.496 290.077 486.824C294.846 481.456 293.939 473.249 288.346 468.747L227.197 419.528C221.604 415.026 213.456 415.952 208.522 421.168C185.307 445.704 154.932 462.479 121.566 468.979C83.9325 476.31 44.9186 470.096 11.4247 451.436C-22.0692 432.776 -47.8851 402.872 -61.457 367.013C-75.0289 331.154 -75.4823 291.651 -62.7372 255.49C-49.992 219.33 -24.8695 188.841 8.18727 169.417C41.244 149.993 80.105 142.885 117.897 149.35C155.689 155.815 189.978 175.437 214.698 204.745C236.614 230.729 249.758 262.843 252.457 296.513C253.031 303.67 258.797 309.5 265.977 309.5H344.473Z" fill="#FFC93C"/>
<path d="M377.547 309.5C378.204 309.5 378.737 308.966 378.734 308.309C378.455 240.714 354.427 175.352 310.829 123.662C266.975 71.6694 206.147 36.86 139.103 25.3907C72.059 13.9214 3.11894 26.5312 -55.5243 60.9899C-114.168 95.4487 -158.735 149.536 -181.346 213.686C-203.956 277.836 -203.151 347.915 -179.074 411.529C-154.998 475.143 -109.2 528.193 -49.7811 561.297C9.63777 594.4 78.8491 605.424 145.612 592.419C211.985 579.489 271.687 543.639 314.288 491.157C314.702 490.647 314.622 489.897 314.11 489.485C313.598 489.073 312.849 489.155 312.434 489.665C270.186 541.709 210.979 577.261 145.157 590.083C78.9453 602.981 10.3053 592.048 -48.623 559.218C-107.551 526.388 -152.971 473.776 -176.849 410.687C-200.727 347.598 -201.525 278.097 -179.101 214.477C-156.678 150.857 -112.478 97.2158 -54.3188 63.0416C3.84033 28.8673 72.2112 16.3616 138.702 27.7362C205.192 39.1108 265.518 73.6328 309.01 125.197C352.246 176.457 376.076 241.276 376.355 308.309C376.357 308.966 376.89 309.5 377.547 309.5Z" fill="#FFC93C"/>
<path d="M398.722 309.5C399.428 309.5 400 308.928 399.997 308.222C399.796 259.527 388.108 211.559 365.874 168.222C343.446 124.506 310.932 86.7576 271.022 58.0995C231.111 29.4413 184.951 10.6968 136.36 3.41647C87.7684 -3.86388 38.1418 0.529122 -8.41507 16.2321C-54.972 31.9351 -97.1213 58.4968 -131.377 93.7202C-165.632 128.944 -191.01 171.817 -205.41 218.793C-219.81 265.769 -222.818 315.499 -214.187 363.869C-205.631 411.819 -185.879 457.067 -156.546 495.936C-156.121 496.499 -155.319 496.608 -154.758 496.181C-154.196 495.754 -154.088 494.952 -154.513 494.389C-183.601 455.842 -203.187 410.971 -211.672 363.42C-220.232 315.449 -217.248 266.13 -202.967 219.542C-188.686 172.953 -163.518 130.434 -129.545 95.5016C-95.5724 60.569 -53.771 34.2266 -7.59846 18.6532C38.5741 3.0799 87.7909 -1.27683 135.981 5.94341C184.171 13.1636 229.95 31.7534 269.531 60.1749C309.112 88.5965 341.358 126.033 363.601 169.389C385.649 212.365 397.241 259.932 397.442 308.222C397.445 308.928 398.017 309.5 398.722 309.5Z" fill="#FFC93C"/>
</svg>
