<svg width="376" height="198" viewBox="0 0 376 198" fill="none" xmlns="http://www.w3.org/2000/svg">
<path d="M563.473 309.5C570.653 309.5 576.506 303.675 576.157 296.504C573.315 238.155 551.394 182.21 513.575 137.372C472.956 89.2143 416.616 56.9728 354.518 46.3496C292.419 35.7264 228.565 47.4059 174.248 79.3227C119.931 111.239 78.6508 161.337 57.7086 220.754C36.7664 280.172 37.5115 345.081 59.8122 404.003C82.1128 462.924 124.532 512.06 179.568 542.722C234.603 573.383 298.709 583.594 360.547 571.548C418.122 560.332 470.277 530.496 509.077 486.824C513.846 481.456 512.939 473.249 507.346 468.747L446.197 419.528C440.604 415.026 432.456 415.952 427.522 421.168C404.307 445.704 373.932 462.479 340.566 468.979C302.933 476.31 263.919 470.096 230.425 451.436C196.931 432.776 171.115 402.872 157.543 367.013C143.971 331.154 143.518 291.651 156.263 255.49C169.008 219.33 194.131 188.841 227.187 169.417C260.244 149.993 299.105 142.885 336.897 149.35C374.689 155.815 408.978 175.437 433.698 204.745C455.614 230.729 468.758 262.843 471.457 296.513C472.031 303.67 477.797 309.5 484.977 309.5H563.473Z" fill="#FFC93C"/>
<path d="M596.547 309.5C597.204 309.5 597.737 308.966 597.734 308.309C597.455 240.714 573.427 175.352 529.829 123.662C485.975 71.6694 425.147 36.86 358.103 25.3907C291.059 13.9214 222.119 26.5312 163.476 60.9899C104.832 95.4487 60.2645 149.536 37.6543 213.686C15.0442 277.836 15.8487 347.915 39.9255 411.529C64.0023 475.143 109.8 528.193 169.219 561.297C228.638 594.4 297.849 605.424 364.612 592.419C430.985 579.489 490.687 543.639 533.288 491.157C533.702 490.647 533.622 489.897 533.11 489.485C532.598 489.073 531.849 489.155 531.434 489.665C489.186 541.709 429.979 577.261 364.157 590.083C297.945 602.981 229.305 592.048 170.377 559.218C111.449 526.388 66.029 473.776 42.151 410.687C18.273 347.598 17.4751 278.097 39.8986 214.477C62.3221 150.857 106.522 97.2158 164.681 63.0416C222.84 28.8673 291.211 16.3616 357.702 27.7362C424.192 39.1108 484.518 73.6328 528.01 125.197C571.246 176.457 595.076 241.276 595.354 308.309C595.357 308.966 595.89 309.5 596.547 309.5Z" fill="#FFC93C"/>
<path d="M617.722 309.5C618.428 309.5 619 308.928 618.997 308.222C618.796 259.527 607.108 211.559 584.874 168.222C562.446 124.506 529.932 86.7576 490.022 58.0995C450.111 29.4413 403.951 10.6968 355.36 3.41647C306.768 -3.86388 257.142 0.529122 210.585 16.2321C164.028 31.9351 121.879 58.4968 87.6232 93.7202C53.3676 128.944 27.9904 171.817 13.5904 218.793C-0.80951 265.769 -3.81836 315.499 4.81277 363.869C13.3691 411.819 33.1206 457.067 62.4539 495.936C62.8789 496.499 63.6809 496.608 64.2424 496.181C64.8038 495.754 64.9121 494.952 64.487 494.389C35.3994 455.842 15.8132 410.971 7.32818 363.42C-1.23169 315.449 1.75232 266.13 16.0334 219.542C30.3145 172.953 55.4822 130.434 89.4549 95.5016C123.428 60.569 165.229 34.2266 211.402 18.6532C257.574 3.0799 306.791 -1.27683 354.981 5.94341C403.171 13.1636 448.95 31.7534 488.531 60.1749C528.112 88.5965 560.358 126.033 582.601 169.389C604.649 212.365 616.241 259.932 616.442 308.222C616.445 308.928 617.017 309.5 617.722 309.5Z" fill="#FFC93C"/>
</svg>
