<svg width="250" height="200" viewBox="0 0 250 200" fill="none" xmlns="http://www.w3.org/2000/svg">
<path d="M200 87.5V112.5H250V87.5H200ZM175 170.125C187 179 202.625 190.75 215 200C220 193.375 225 186.625 230 180C217.625 170.75 202 159 190 150C185 156.75 180 163.5 175 170.125ZM230 20C225 13.375 220 6.625 215 0C202.625 9.25 187 21 175 30C180 36.625 185 43.375 190 50C202 41 217.625 29.375 230 20ZM25 62.5C11.25 62.5 0 73.75 0 87.5V112.5C0 126.25 11.25 137.5 25 137.5H37.5V187.5H62.5V137.5H75L137.5 175V25L75 62.5H25ZM168.75 100C168.75 83.375 161.5 68.375 150 58.125V141.75C161.5 131.625 168.75 116.625 168.75 100Z" fill="white"/>
</svg>
