<svg width="16" height="14" viewBox="0 0 16 14" fill="none" xmlns="http://www.w3.org/2000/svg">
<path d="M8 13.6123C7.51625 13.1833 6.9695 12.737 6.39125 12.2623H6.38375C4.3475 10.5973 2.03975 8.71329 1.0205 6.45579C0.68564 5.73709 0.50818 4.95514 0.499993 4.16229C0.497757 3.07441 0.93408 2.03153 1.71036 1.26937C2.48664 0.507205 3.53734 0.0900893 4.625 0.112293C5.51047 0.113692 6.37688 0.369604 7.121 0.849543C7.44798 1.06177 7.74382 1.31848 8 1.61229C8.25762 1.31964 8.55354 1.06307 8.87975 0.849543C9.62355 0.369509 10.4897 0.113582 11.375 0.112293C12.4627 0.0900893 13.5134 0.507205 14.2896 1.26937C15.0659 2.03153 15.5022 3.07441 15.5 4.16229C15.4924 4.95641 15.3149 5.73969 14.9795 6.45954C13.9603 8.71704 11.6533 10.6003 9.617 12.2623L9.6095 12.2683C9.0305 12.74 8.4845 13.1863 8.00075 13.6183L8 13.6123ZM4.625 1.61229C3.92638 1.60355 3.25256 1.87093 2.75 2.35629C2.26579 2.83192 1.99517 3.48358 1.99994 4.16229C2.0085 4.74017 2.13937 5.30968 2.384 5.83329C2.86513 6.80732 3.51433 7.68883 4.30175 8.43729C5.045 9.18729 5.9 9.91329 6.6395 10.5238C6.84425 10.6925 7.05275 10.8628 7.26125 11.033L7.3925 11.1403C7.59275 11.3038 7.79975 11.4733 8 11.6398L8.00975 11.6308L8.01425 11.627H8.01875L8.0255 11.6218H8.02925H8.033L8.0465 11.6105L8.07725 11.5858L8.0825 11.5813L8.09075 11.5753H8.09525L8.102 11.5693L8.6 11.1605L8.7305 11.0533C8.94125 10.8815 9.14975 10.7113 9.3545 10.5425C10.094 9.93204 10.9498 9.20679 11.693 8.45304C12.4805 7.70496 13.1297 6.82368 13.6108 5.84979C13.8598 5.32164 13.9925 4.74617 14 4.16229C14.0031 3.48567 13.7326 2.83651 13.25 2.36229C12.7484 1.87473 12.0745 1.60516 11.375 1.61229C10.5214 1.60504 9.70545 1.96282 9.1325 2.59554L8 3.90054L6.8675 2.59554C6.29455 1.96282 5.47856 1.60504 4.625 1.61229Z" fill="#FF6F3C"/>
</svg>
