<svg width="662" height="499" viewBox="0 0 662 499" fill="none" xmlns="http://www.w3.org/2000/svg">
<g filter="url(#filter0_d_87_2)">
<path d="M509.475 164.457H146.352V368.392H509.475V164.457Z" fill="#E6E6E6"/>
<path d="M509.475 130.377H146.352V164.457H509.475V130.377Z" fill="#C9C9C9"/>
<path opacity="0.08" d="M483.028 187.778H403.075V235.133H483.028V187.778Z" fill="black"/>
<path opacity="0.08" d="M483.028 242.912H403.075V290.267H483.028V242.912Z" fill="black"/>
<path opacity="0.08" d="M483.028 298.063H403.075V345.418H483.028V298.063Z" fill="black"/>
<path d="M383.778 186.686H177.532V344.607H383.778V186.686Z" fill="#54B435"/>
<path d="M383.778 328.253H177.532V344.607H383.778V328.253Z" fill="#24285B"/>
<path opacity="0.46" d="M373.219 335.354H188.091V337.522H373.219V335.354Z" fill="white"/>
<path d="M230.79 342.72C234.263 342.72 237.079 339.904 237.079 336.43C237.079 332.956 234.263 330.14 230.79 330.14C227.316 330.14 224.501 332.956 224.501 336.43C224.501 339.904 227.316 342.72 230.79 342.72Z" fill="#FFD200"/>
<path opacity="0.44" d="M259.471 302.383V221.759L320.656 262.063L259.471 302.383Z" fill="white"/>
<path d="M168.065 153.417C171.036 153.417 173.444 151.008 173.444 148.037C173.444 145.067 171.036 142.658 168.065 142.658C165.095 142.658 162.687 145.067 162.687 148.037C162.687 151.008 165.095 153.417 168.065 153.417Z" fill="#24285B"/>
<path d="M185.972 153.417C188.943 153.417 191.351 151.008 191.351 148.037C191.351 145.067 188.943 142.658 185.972 142.658C183.002 142.658 180.594 145.067 180.594 148.037C180.594 151.008 183.002 153.417 185.972 153.417Z" fill="#FFD200"/>
<path d="M203.879 153.417C206.85 153.417 209.258 151.008 209.258 148.037C209.258 145.067 206.85 142.658 203.879 142.658C200.909 142.658 198.501 145.067 198.501 148.037C198.501 151.008 200.909 153.417 203.879 153.417Z" fill="#54B435"/>
<path opacity="0.08" d="M509.475 130.327V215.867C497.46 224.904 482.664 229.453 467.648 228.726C452.632 228 438.343 222.044 427.256 211.889C416.17 201.735 408.984 188.022 406.943 173.126C404.903 158.23 408.136 143.089 416.084 130.327H509.475Z" fill="black"/>
<path opacity="0.08" d="M509.492 252.248H414.098V368.226H509.492V252.248Z" fill="black"/>
<path d="M563.643 258.587H428.744V381.567H563.643V258.587Z" fill="#F4F4F4"/>
<path opacity="0.08" d="M245.122 302.681H146.352V367.994H245.122V302.681Z" fill="black"/>
<path d="M238.121 307.944H123.099V387.708H238.121V307.944Z" fill="#F4F4F4"/>
<path d="M163.233 353.958H150.291V370.51H163.233V353.958Z" fill="#C1C1C1"/>
<path d="M187.429 341.214H174.487V370.51H187.429V341.214Z" fill="#FFD200"/>
<path d="M211.161 328.237H198.219V370.51H211.161V328.237Z" fill="#54B435"/>
<path d="M543.684 159.26C543.683 161.749 543.54 164.235 543.254 166.708C541.335 183.345 533.027 198.586 520.083 209.211C507.138 219.837 490.572 225.015 473.881 223.652C457.191 222.289 441.683 214.492 430.634 201.907C419.584 189.323 413.857 172.936 414.663 156.208C415.469 139.48 422.744 123.719 434.952 112.255C447.16 100.791 463.345 94.521 480.089 94.7688C496.833 95.0167 512.825 101.763 524.688 113.583C536.552 125.404 543.357 141.373 543.667 158.118C543.684 158.465 543.684 158.879 543.684 159.26Z" fill="#E6E6E6"/>
<path d="M479.271 204.744C504.389 204.744 524.751 184.38 524.751 159.26C524.751 134.139 504.389 113.775 479.271 113.775C454.154 113.775 433.792 134.139 433.792 159.26C433.792 184.38 454.154 204.744 479.271 204.744Z" fill="#54B435"/>
<path d="M479.272 186.984C494.582 186.984 506.993 174.571 506.993 159.26C506.993 143.948 494.582 131.535 479.272 131.535C463.962 131.535 451.55 143.948 451.55 159.26C451.55 174.571 463.962 186.984 479.272 186.984Z" fill="#E6E6E6"/>
<path d="M479.272 172.633C486.657 172.633 492.644 166.646 492.644 159.26C492.644 151.873 486.657 145.886 479.272 145.886C471.886 145.886 465.899 151.873 465.899 159.26C465.899 166.646 471.886 172.633 479.272 172.633Z" fill="#54B435"/>
<path opacity="0.08" d="M219.933 181.638H146.352V240.943H219.933V181.638Z" fill="black"/>
<path d="M214.422 175.679H128.875V234.984H214.422V175.679Z" fill="#F4F4F4"/>
<path d="M180.676 223.514C177.434 225.173 173.824 225.981 170.184 225.864C160.535 225.864 152.26 218.78 152.26 207.458C152.26 195.293 160.701 184.782 173.775 184.782C184.036 184.782 190.937 191.982 190.937 201.847C190.937 210.703 185.972 215.9 180.445 215.9C178.078 215.9 175.893 214.245 176.075 210.703H175.827C175.07 212.255 173.894 213.564 172.432 214.483C170.969 215.401 169.279 215.892 167.552 215.9C164.126 215.9 161.164 213.119 161.164 208.452C161.16 206.612 161.519 204.79 162.221 203.09C162.923 201.39 163.955 199.846 165.256 198.546C166.557 197.246 168.103 196.217 169.803 195.516C171.504 194.816 173.326 194.459 175.165 194.465C177.331 194.432 179.479 194.855 181.471 195.707L179.501 206.465C178.624 210.951 179.319 213.086 181.272 213.086C184.284 213.086 187.644 209.13 187.644 202.278C187.644 193.72 182.513 187.58 173.361 187.58C163.746 187.58 155.653 195.194 155.653 207.177C155.653 217.108 162.091 223.116 170.829 223.116C173.924 223.187 176.987 222.476 179.733 221.047L180.676 223.514ZM177.366 198.007C176.411 197.722 175.418 197.583 174.42 197.594C169.224 197.594 165.037 202.559 165.037 208.22C165.037 210.818 166.328 212.705 168.926 212.705C172.352 212.705 175.546 208.336 176.125 204.678L177.366 198.007Z" fill="#C1C1C1"/>
</g>
<defs>
<filter id="filter0_d_87_2" x="0" y="0" width="724" height="595" filterUnits="userSpaceOnUse" color-interpolation-filters="sRGB">
<feFlood flood-opacity="0" result="BackgroundImageFix"/>
<feColorMatrix in="SourceAlpha" type="matrix" values="0 0 0 0 0 0 0 0 0 0 0 0 0 0 0 0 0 0 127 0" result="hardAlpha"/>
<feOffset dx="51" dy="85"/>
<feGaussianBlur stdDeviation="5.5"/>
<feComposite in2="hardAlpha" operator="out"/>
<feColorMatrix type="matrix" values="0 0 0 0 0 0 0 0 0 0 0 0 0 0 0 0 0 0 0.5 0"/>
<feBlend mode="normal" in2="BackgroundImageFix" result="effect1_dropShadow_87_2"/>
<feBlend mode="normal" in="SourceGraphic" in2="effect1_dropShadow_87_2" result="shape"/>
</filter>
</defs>
</svg>
