<svg width="42" height="44" viewBox="0 0 42 44" fill="none" xmlns="http://www.w3.org/2000/svg">
<path d="M21 28.6123C20.5163 28.1833 19.9695 27.737 19.3913 27.2623H19.3838C17.3475 25.5973 15.0398 23.7133 14.0205 21.4558C13.6856 20.7371 13.5082 19.9551 13.5 19.1623C13.4978 18.0744 13.9341 17.0315 14.7104 16.2694C15.4866 15.5072 16.5373 15.0901 17.625 15.1123C18.5105 15.1137 19.3769 15.3696 20.121 15.8495C20.448 16.0618 20.7438 16.3185 21 16.6123C21.2576 16.3196 21.5535 16.0631 21.8798 15.8495C22.6236 15.3695 23.4897 15.1136 24.375 15.1123C25.4627 15.0901 26.5134 15.5072 27.2896 16.2694C28.0659 17.0315 28.5022 18.0744 28.5 19.1623C28.4924 19.9564 28.3149 20.7397 27.9795 21.4595C26.9603 23.717 24.6533 25.6003 22.617 27.2623L22.6095 27.2683C22.0305 27.74 21.4845 28.1863 21.0008 28.6183L21 28.6123ZM17.625 16.6123C16.9264 16.6036 16.2526 16.8709 15.75 17.3563C15.2658 17.8319 14.9952 18.4836 14.9999 19.1623C15.0085 19.7402 15.1394 20.3097 15.384 20.8333C15.8651 21.8073 16.5143 22.6888 17.3018 23.4373C18.045 24.1873 18.9 24.9133 19.6395 25.5238C19.8443 25.6925 20.0528 25.8628 20.2613 26.033L20.3925 26.1403C20.5928 26.3038 20.7998 26.4733 21 26.6398L21.0098 26.6308L21.0143 26.627H21.0188L21.0255 26.6218H21.0293H21.033L21.0465 26.6105L21.0773 26.5858L21.0825 26.5813L21.0908 26.5753H21.0953L21.102 26.5693L21.6 26.1605L21.7305 26.0533C21.9413 25.8815 22.1498 25.7113 22.3545 25.5425C23.094 24.932 23.9498 24.2068 24.693 23.453C25.4805 22.705 26.1297 21.8237 26.6108 20.8498C26.8598 20.3216 26.9925 19.7462 27 19.1623C27.0031 18.4857 26.7326 17.8365 26.25 17.3623C25.7484 16.8747 25.0745 16.6052 24.375 16.6123C23.5214 16.605 22.7055 16.9628 22.1325 17.5955L21 18.9005L19.8675 17.5955C19.2945 16.9628 18.4786 16.605 17.625 16.6123Z" fill="#FF6F3C"/>
<rect x="0.5" y="0.5" width="41" height="42.7247" rx="5.5" stroke="#D1D1D1"/>
</svg>
