<svg width="633" height="477" viewBox="0 0 633 477" fill="none" xmlns="http://www.w3.org/2000/svg">
<path d="M163.362 336.407L468.657 336.407V114.756L163.362 114.756V336.407Z" fill="#E6E6E6"/>
<path opacity="0.05" d="M460.618 174.12C460.618 174.12 454.288 172.332 452.089 181.92C449.889 191.508 450.918 193.581 455.586 195.986C460.254 198.391 457.865 213.96 449.367 213.628C440.869 213.295 433.953 206.429 429.791 213.628C425.629 220.827 421.42 273.752 404.028 262.265C386.636 250.778 382.743 207.03 382.743 207.03L351.663 206.571V240.889L375.844 240.399C375.844 240.399 379.009 282.549 412.953 291.963C414.643 292.413 416.224 293.202 417.6 294.282C418.976 295.362 420.118 296.71 420.957 298.244C421.796 299.778 422.314 301.467 422.481 303.208C422.648 304.948 422.459 306.705 421.926 308.37L412.795 336.391H465.35V299.431C465.35 299.431 467.85 184.705 460.618 174.12Z" fill="black"/>
<path opacity="0.45" d="M463.039 392.259C513.434 392.259 554.286 386.174 554.286 378.668C554.286 371.161 513.434 365.076 463.039 365.076C412.645 365.076 371.792 371.161 371.792 378.668C371.792 386.174 412.645 392.259 463.039 392.259Z" fill="#E6E6E6"/>
<path opacity="0.45" d="M143.343 392.259C187.348 392.259 223.022 386.174 223.022 378.668C223.022 371.161 187.348 365.076 143.343 365.076C99.3375 365.076 63.664 371.161 63.664 378.668C63.664 386.174 99.3375 392.259 143.343 392.259Z" fill="#E6E6E6"/>
<path opacity="0.58" d="M529.758 365.076C529.758 365.076 539.063 362.577 541.12 354.001C541.12 354.001 526.735 351.026 526.26 365.883L529.758 365.076Z" fill="#54B435"/>
<path opacity="0.73" d="M528.555 364.175C528.555 364.175 535.091 353.954 529.425 344.334C526.28 346.435 523.952 349.551 522.828 353.162C521.705 356.774 521.855 360.661 523.253 364.175H528.555Z" fill="#54B435"/>
<path d="M526.972 364.175C526.972 364.175 523.586 353.337 513.236 351.232C513.236 351.232 511.258 358.257 519.883 364.175H526.972Z" fill="#54B435"/>
<path d="M533.698 363.969L531.752 376.832H519.899L518.205 363.969H533.698Z" fill="#24285B"/>
<path d="M459.083 207.046C459.083 207.046 439.318 204.403 435.346 220.922C431.374 237.44 430.82 260.303 414.931 264.875C399.043 269.448 390.276 237.709 390.276 237.709C390.276 237.709 386.589 228.801 382.617 227.583C378.645 226.365 375.812 235.162 382.617 240.541C382.617 240.541 388.361 281.077 418.793 279.653C449.224 278.229 459.083 236.443 459.083 207.046Z" fill="#F4A28C"/>
<path opacity="0.08" d="M459.083 207.046C459.083 207.046 439.318 204.403 435.346 220.922C431.374 237.44 430.82 260.303 414.931 264.875C399.043 269.448 390.276 237.709 390.276 237.709C390.276 237.709 386.589 228.801 382.617 227.583C378.645 226.365 375.812 235.162 382.617 240.541C382.617 240.541 388.361 281.077 418.793 279.653C449.224 278.229 459.083 236.443 459.083 207.046Z" fill="black"/>
<path d="M459.083 207.046C459.083 207.046 437.862 202.853 434.887 220.004C433.268 229.831 430.512 239.436 426.674 248.626L442.878 253.879L459.083 207.046Z" fill="#54B435"/>
<path opacity="0.46" d="M459.083 207.046C459.083 207.046 437.862 202.853 434.887 220.004C433.268 229.831 430.512 239.436 426.674 248.626L442.878 253.879L459.083 207.046Z" fill="white"/>
<path d="M460.096 179.183C458.597 182.392 457.533 185.787 456.931 189.278C456.883 189.698 456.92 190.125 457.04 190.531C457.159 190.937 457.359 191.315 457.628 191.643C457.897 191.971 458.228 192.241 458.603 192.438C458.978 192.635 459.389 192.755 459.811 192.79C461.154 193.01 462.531 192.837 463.778 192.293C465.024 191.748 466.087 190.855 466.838 189.721L470.556 185.164C471.206 184.172 471.531 183.002 471.486 181.817C471.44 180.632 471.027 179.49 470.303 178.55C467.803 174.88 461.568 175.576 460.096 179.183Z" fill="#F4A28C"/>
<path d="M469.116 186.208L470.62 207.046H459.083L462.533 192.268L469.116 186.208Z" fill="#F4A28C"/>
<path d="M458.561 182.901L456.045 184.578C455.901 184.672 455.783 184.8 455.701 184.95C455.62 185.101 455.577 185.269 455.577 185.441C455.577 185.612 455.62 185.781 455.701 185.931C455.783 186.082 455.901 186.21 456.045 186.303L458.165 187.585L458.561 182.901Z" fill="#F4A28C"/>
<path opacity="0.31" d="M462.438 192.616C463.827 192.371 465.124 191.753 466.189 190.828C466.189 190.828 466.948 195.337 461.441 196.856L462.438 192.616Z" fill="#CE8172"/>
<path d="M465.35 185.955C465.35 185.955 466.252 183.661 467.914 184.483C469.575 185.306 468.309 188.613 465.841 188.043L465.35 185.955Z" fill="#F4A28C"/>
<path d="M438.226 325.68L428.462 370.045H434.143L453.133 325.68H438.226Z" fill="#F4A28C"/>
<path d="M469.987 320.3L480.399 370.045H486.112L485.242 319.936L469.987 320.3Z" fill="#F4A28C"/>
<path d="M428.462 370.045C428.462 370.045 425.297 374.032 421.277 373.842C417.258 373.652 416.656 379.332 423.145 378.747C425.165 378.578 427.166 378.234 429.126 377.718C430.932 377.307 432.814 377.372 434.586 377.908C434.932 377.993 435.296 377.968 435.627 377.838C435.959 377.708 436.242 377.478 436.438 377.18C438.273 375.013 433.763 370.045 433.763 370.045H428.462Z" fill="#54B435"/>
<path d="M485.685 370.045C485.685 370.045 488.85 374.032 492.87 373.842C496.889 373.652 497.49 379.332 491.018 378.747C488.998 378.58 486.996 378.236 485.036 377.718C483.225 377.307 481.339 377.372 479.561 377.908C479.217 377.994 478.855 377.97 478.526 377.839C478.196 377.709 477.916 377.478 477.725 377.18C475.874 375.013 480.399 370.045 480.399 370.045H485.685Z" fill="#54B435"/>
<path d="M459.083 207.046H470.62C470.62 207.046 471.411 207.046 472.772 207.046C497.949 207.853 512.572 235.81 499.2 257.154C491.762 269.021 482.884 285.017 482.299 294.573L437.435 292.295C437.435 292.295 440.821 263.198 432.513 246.569C432.513 246.585 417.226 220.4 459.083 207.046Z" fill="#54B435"/>
<path opacity="0.08" d="M479.118 222.282C479.118 222.282 473.547 233.817 472.218 254.559C470.889 275.302 439.413 250.794 439.413 250.794L437.957 285.064L483.77 287.548L487.584 273.657C487.584 273.657 499.595 252.091 479.118 222.282Z" fill="black"/>
<path d="M437.139 281.256L467.05 277.754L461.638 231.553L431.727 235.055L437.139 281.256Z" fill="#FFD200"/>
<path d="M440.242 237.981L454.167 236.35L453.374 229.577L439.448 231.208L440.242 237.981Z" fill="#24285B"/>
<path d="M437.957 285.064L483.77 287.485L496.019 333.875L429.791 331.518L437.957 285.064Z" fill="#24285B"/>
<path opacity="0.08" d="M433.542 250.857L465.35 263.546L467.027 277.802L437.118 281.314L433.542 250.857Z" fill="black"/>
<path d="M479.498 224.497C479.422 222.456 479.988 220.443 481.116 218.741C482.245 217.038 483.879 215.733 485.789 215.008C487.699 214.283 489.788 214.175 491.762 214.7C493.736 215.224 495.496 216.354 496.794 217.931C503.299 225.735 506.742 235.639 506.479 245.794C506.099 272.945 502.444 302.342 443.86 270.223L447.025 261.616C447.025 261.616 473.025 274.115 483.881 270.065C491.857 267.059 480.32 243.152 479.498 224.497Z" fill="#F4A28C"/>
<path d="M447.009 261.6C447.009 261.6 437.245 256.964 433.083 261.6C428.921 266.236 435.536 270.397 443.86 270.207L447.009 261.6Z" fill="#F4A28C"/>
<path d="M459.083 176.114L457.073 181.129L465.35 184.294C465.35 184.294 465.825 189.863 462.897 190.876C463.576 190.841 464.241 190.67 464.852 190.374C465.464 190.078 466.01 189.662 466.458 189.151C466.806 188.768 467.29 188.536 467.807 188.503C468.324 188.471 468.833 188.641 469.227 188.977L469.322 189.072C471.698 186.737 473.37 183.782 474.149 180.544C475.098 175.639 469.607 174.879 469.607 174.879C469.607 174.879 462.343 169.785 459.083 176.114Z" fill="#24285B"/>
<path d="M469.607 174.895C469.607 174.895 469.987 170.149 478.501 170.924C487.014 171.699 478.501 183.154 485.495 193.866C485.495 193.866 472.629 191.145 472.266 179.626L469.607 174.895Z" fill="#24285B"/>
<path d="M469.085 174.563C469.729 174.212 470.463 174.058 471.194 174.12C471.926 174.182 472.623 174.457 473.199 174.911C475.605 176.493 476.665 181.984 472.867 183.898C472.867 183.898 476.016 176.367 469.085 174.563Z" fill="#FFD200"/>
<path d="M483.216 253.879H508.172C508.172 253.879 510.91 217.488 490.258 212.742C469.607 207.995 483.216 253.879 483.216 253.879Z" fill="#54B435"/>
<path opacity="0.46" d="M483.216 253.879H508.172C508.172 253.879 510.91 217.488 490.258 212.742C469.607 207.995 483.216 253.879 483.216 253.879Z" fill="white"/>
<path d="M364.022 235.082H401.449V203.866H364.022V235.082Z" fill="#24285B"/>
<path opacity="0.62" d="M397.556 230.241L388.63 214.324L382.379 226.111L374.815 216.112L367.235 230.241H397.556Z" fill="white"/>
<path d="M381.003 215.511C382.646 215.511 383.978 214.179 383.978 212.536C383.978 210.893 382.646 209.561 381.003 209.561C379.36 209.561 378.028 210.893 378.028 212.536C378.028 214.179 379.36 215.511 381.003 215.511Z" fill="white"/>
<path opacity="0.05" d="M185.96 221.808L166.115 222.346L159.579 336.407H188.064C189.647 330.98 193.761 302.753 209.238 286.409C224.462 270.318 286.622 228.611 263.85 200.448C252.773 186.73 234.163 239.101 234.163 239.101L204.855 242.582L206.864 241.538L185.96 221.808Z" fill="black"/>
<path d="M142.219 193.328L145.511 203.185L137.709 208.137L134.908 191.065L142.219 193.328Z" fill="#F4A28C"/>
<path d="M132.234 181.541C132.637 180.593 133.273 179.763 134.082 179.126C134.892 178.49 135.849 178.067 136.865 177.899C137.881 177.73 138.923 177.82 139.895 178.161C140.867 178.501 141.737 179.082 142.425 179.848C145.732 183.392 149.736 189.024 145.21 192.078C138.295 196.825 131.933 188.012 131.933 188.012C131.386 185.873 131.491 183.619 132.234 181.541Z" fill="#F4A28C"/>
<path d="M137.298 187.585C137.298 187.585 135.509 186.097 134.718 188.218C133.927 190.338 137.045 191.382 137.978 190.274C138.912 189.167 137.298 187.585 137.298 187.585Z" fill="#F4A28C"/>
<path d="M121.631 213.185C121.631 213.185 89.5695 232.519 85.3442 278.055C84.9799 281.839 85.99 285.627 88.1897 288.727C90.3894 291.827 93.6318 294.031 97.3237 294.937L134.908 304.003L121.631 213.185Z" fill="#54B435"/>
<path opacity="0.2" d="M121.631 213.185C121.631 213.185 89.5695 232.519 85.3442 278.055C84.9799 281.839 85.99 285.627 88.1897 288.727C90.3894 291.827 93.6318 294.031 97.3237 294.937L134.908 304.003L121.631 213.185Z" fill="white"/>
<path d="M135.092 268.384L85.8281 291.018L100.629 323.222L149.893 300.588L135.092 268.384Z" fill="#FFD200"/>
<path d="M138.279 185.037C138.279 185.037 141.95 195.575 135.541 194.91C129.132 194.246 132.629 189.721 129.449 185.037C126.268 180.354 127.866 177.126 132.803 173.06C135.035 171.177 136.522 170.291 137.424 169.294C137.802 168.851 138.285 168.51 138.83 168.303C139.374 168.097 139.963 168.032 140.539 168.114C141.116 168.196 141.662 168.423 142.128 168.773C142.593 169.123 142.962 169.586 143.2 170.117C144.862 174.168 144.878 179.579 138.279 185.037Z" fill="#24285B"/>
<path d="M114.209 222.678C115.73 219.299 117.963 216.288 120.754 213.849C123.545 211.411 126.829 209.603 130.382 208.549C144.102 204.435 170.135 195.796 177.857 208.549C188.381 226.096 172.176 295.001 172.176 295.001L126.078 298.624C126.078 298.624 100.742 252.914 114.209 222.678Z" fill="#54B435"/>
<path d="M172.144 295.032L166.083 374.222H156.509L147.948 312.69L126.774 298.608L172.144 295.032Z" fill="#24285B"/>
<path d="M126.774 298.608L113.56 374.222H123.831L146.001 311.408L126.774 298.608Z" fill="#24285B"/>
<path opacity="0.08" d="M134.37 207.315C134.37 207.315 112.816 276.71 175.04 281.299L172.144 295.032L126.078 298.624C115.492 279.962 110.124 258.795 110.538 237.345C110.538 237.345 110.933 219.656 123.388 211.824C126.687 209.559 130.431 208.022 134.37 207.315Z" fill="black"/>
<path d="M115.428 374.222L109.098 378.968C108.864 379.145 108.691 379.39 108.603 379.669C108.515 379.949 108.516 380.249 108.607 380.527C108.698 380.806 108.873 381.049 109.108 381.223C109.344 381.398 109.628 381.494 109.92 381.5H120.602C120.973 381.5 121.329 381.354 121.593 381.093C121.856 380.832 122.007 380.478 122.011 380.107V374.285L115.428 374.222Z" fill="#54B435"/>
<path d="M165.814 374.222L171.812 378.968C172.049 379.147 172.223 379.397 172.31 379.681C172.397 379.965 172.391 380.269 172.295 380.55C172.198 380.83 172.015 381.073 171.772 381.244C171.529 381.415 171.239 381.504 170.942 381.5H163.33C162.255 381.5 161.225 381.073 160.465 380.313C159.705 379.554 159.279 378.524 159.279 377.449V374.285L165.814 374.222Z" fill="#54B435"/>
<path d="M260.036 201.445L253.2 199.435L222.832 225.842C220.6 227.776 217.897 229.087 214.996 229.642C212.095 230.198 209.099 229.979 206.311 229.007C198.054 226.199 191.032 220.605 186.45 213.185C175.563 195.527 157.063 201.904 157.063 201.904C157.063 201.904 143.121 215.637 170.736 239.196C187.226 253.262 204.111 254.148 215.046 252.582C216.38 252.421 217.722 252.331 219.065 252.313C220.357 252.269 221.629 251.984 222.816 251.474C224.285 250.845 225.717 250.132 227.105 249.338C238.309 242.867 250.383 229.165 260.036 201.445Z" fill="#54B435"/>
<path opacity="0.2" d="M260.036 201.445L253.2 199.435L222.832 225.842C220.6 227.776 217.897 229.087 214.996 229.642C212.095 230.198 209.099 229.979 206.311 229.007C198.054 226.199 191.032 220.605 186.45 213.185C175.563 195.527 157.063 201.904 157.063 201.904C157.063 201.904 143.121 215.637 170.736 239.196C187.226 253.262 204.111 254.148 215.046 252.582C216.38 252.421 217.722 252.331 219.065 252.313C220.357 252.269 221.629 251.984 222.816 251.474C224.285 250.845 225.717 250.132 227.105 249.338C238.309 242.867 250.383 229.165 260.036 201.445Z" fill="white"/>
<path d="M253.2 199.435C253.2 199.435 257.045 188.36 260.1 187.585C263.154 186.809 260.1 193.502 260.1 193.502C260.1 193.502 268.487 197.616 260.1 201.413L253.2 199.435Z" fill="#F4A28C"/>
<path d="M185.2 145.087C189.456 145.087 192.907 141.637 192.907 137.381C192.907 133.126 189.456 129.676 185.2 129.676C180.944 129.676 177.493 133.126 177.493 137.381C177.493 141.637 180.944 145.087 185.2 145.087Z" fill="#FFD200"/>
<path d="M206.88 145.087C211.137 145.087 214.587 141.637 214.587 137.381C214.587 133.126 211.137 129.676 206.88 129.676C202.624 129.676 199.173 133.126 199.173 137.381C199.173 141.637 202.624 145.087 206.88 145.087Z" fill="#54B435"/>
<path d="M227.658 145.087C231.915 145.087 235.365 141.637 235.365 137.381C235.365 133.126 231.915 129.676 227.658 129.676C223.402 129.676 219.952 133.126 219.952 137.381C219.952 141.637 223.402 145.087 227.658 145.087Z" fill="#24285B"/>
<path d="M447.009 91.608H343.197V163.583H447.009V91.608Z" fill="#F4F4F4"/>
<path d="M379.436 133.125H367.757V148.061H379.436V133.125Z" fill="#C1C1C1"/>
<path d="M401.259 121.638H389.58V148.061H401.259V121.638Z" fill="#C1C1C1"/>
<path d="M422.67 109.914H410.991V148.061H422.67V109.914Z" fill="#C1C1C1"/>
</svg>
