<svg width="410" height="270" viewBox="0 0 410 270" fill="none" xmlns="http://www.w3.org/2000/svg">
<path opacity="0.3" d="M84.8153 22.7646C43.3 34.0188 10.4333 60.3932 5.2515 108.932C0.890502 149.838 9.09801 218.382 78.7515 232.042C146.127 245.272 389.191 271.597 405.177 185.601C414.267 136.681 415.284 53.6922 338.231 27.281C285.997 9.28896 173.91 -1.36389 84.8153 22.7646Z" fill="#E6E6E6"/>
<path opacity="0.45" d="M283.853 269.572C350.859 269.572 405.177 264.132 405.177 257.422C405.177 250.712 350.859 245.272 283.853 245.272C216.848 245.272 162.529 250.712 162.529 257.422C162.529 264.132 216.848 269.572 283.853 269.572Z" fill="#E6E6E6"/>
<path opacity="0.45" d="M81.1035 269.572C111.068 269.572 135.359 264.132 135.359 257.422C135.359 250.712 111.068 245.272 81.1035 245.272C51.1392 245.272 26.8483 250.712 26.8483 257.422C26.8483 264.132 51.1392 269.572 81.1035 269.572Z" fill="#E6E6E6"/>
<path d="M95.6687 85.3194C95.6687 85.3194 114.411 90.1058 114.546 105.656C114.681 121.205 106.24 148.427 118.294 150.648C130.348 152.869 137.625 119.266 137.625 119.266L146.2 122.739C146.2 122.739 137.049 180.14 105.456 170.677C73.8637 161.215 95.6687 85.3194 95.6687 85.3194Z" fill="#54B435"/>
<path opacity="0.44" d="M95.6687 85.3194C95.6687 85.3194 114.411 90.1058 114.546 105.656C114.681 121.205 106.24 148.427 118.294 150.648C130.348 152.869 137.625 119.266 137.625 119.266L146.2 122.739C146.2 122.739 137.049 180.14 105.456 170.677C73.8637 161.215 95.6687 85.3194 95.6687 85.3194Z" fill="white"/>
<path d="M139.561 120.076C139.561 120.076 140.05 111.767 143.382 109.399C146.714 107.03 146.151 113.081 146.151 113.081C146.151 113.081 149.483 109.19 152.276 110.994C155.069 112.798 146.151 122.801 146.151 122.801L139.561 120.076Z" fill="#F4A28C"/>
<path d="M80.3195 51.2744C80.4777 54.9475 80.144 58.6253 79.3273 62.2096C79.2041 62.6341 78.9975 63.0296 78.7195 63.3728C78.4415 63.7161 78.0977 64.0002 77.7085 64.2083C77.3192 64.4165 76.8923 64.5445 76.4529 64.5848C76.0135 64.6252 75.5705 64.577 75.15 64.4432C73.7786 64.1136 72.5309 63.3956 71.5556 62.375C70.5803 61.3544 69.9188 60.0742 69.6498 58.6872L67.9225 52.8331C67.7072 51.626 67.8708 50.3818 68.3907 49.2718C68.9107 48.1618 69.7614 47.2407 70.8258 46.6353C74.6478 44.0702 80.3318 47.2366 80.3195 51.2744Z" fill="#F4A28C"/>
<path d="M68.4125 55.8277L65.9625 77.3666L77.9063 77.8698L74.8928 61.9887L68.4125 55.8277Z" fill="#F4A28C"/>
<path d="M78.6658 51.5444C76.6029 51.543 74.5473 51.3 72.5408 50.8203C73.0941 51.7427 73.3657 52.8071 73.3222 53.8823C73.2786 54.9576 72.9218 55.9965 72.2958 56.8709C71.9694 57.3643 71.5456 57.7855 71.0505 58.1084C70.5554 58.4314 69.9994 58.6493 69.417 58.7486C69.0959 58.7853 68.7706 58.7509 68.4642 58.6477C68.1578 58.5445 67.8778 58.375 67.6441 58.1514C67.4103 57.9277 67.2285 57.6553 67.1115 57.3534C66.9945 57.0515 66.9452 56.7276 66.967 56.4045L67.31 49.949C67.3391 48.7303 67.6959 47.5421 68.3426 46.5097C68.9894 45.4772 69.9023 44.6387 70.985 44.0825C71.9238 43.6171 72.8892 43.2073 73.876 42.8552C76.326 41.9716 79.8663 43.7512 82.1203 42.1925C82.3467 42.0447 82.6069 41.957 82.8765 41.9378C83.1461 41.9185 83.4161 41.9683 83.6612 42.0825C83.9063 42.1966 84.1183 42.3714 84.2773 42.5903C84.4364 42.8093 84.5372 43.0651 84.5703 43.3339C84.8398 45.9357 84.215 49.9858 80.6625 51.2499C80.0171 51.455 79.3428 51.5545 78.6658 51.5444Z" fill="#24285B"/>
<path d="M73.0675 56.6377C73.0675 56.6377 73.0675 54.0972 71.2055 54.1831C69.3435 54.269 69.1965 57.9877 71.769 58.4295L73.0675 56.6377Z" fill="#F4A28C"/>
<path d="M80.295 55.4472L82.0223 58.0613C82.1218 58.2111 82.1814 58.3839 82.1955 58.5633C82.2096 58.7426 82.1777 58.9227 82.1029 59.0862C82.028 59.2498 81.9126 59.3914 81.7677 59.4977C81.6229 59.604 81.4532 59.6715 81.275 59.6936L78.7515 60.1354L80.295 55.4472Z" fill="#F4A28C"/>
<path opacity="0.31" d="M74.7213 62.5041C73.1954 62.5235 71.697 62.097 70.4092 61.2769C70.4092 61.2769 70.5808 65.2778 75.7625 68.0024L74.7213 62.5041Z" fill="#CE8172"/>
<path d="M54.129 249.138C54.129 249.138 53.1367 252.93 49.8537 253.519C46.5707 254.108 45.9828 257.422 49.0453 257.999C52.1078 258.576 59.4455 254.047 59.4455 254.047L58.7963 249.273L54.129 249.138Z" fill="#54B435"/>
<path d="M107.49 249.138C107.49 249.138 108.482 252.93 111.765 253.519C115.048 254.108 115.636 257.422 112.574 257.999C109.511 258.576 102.173 254.035 102.173 254.035L102.823 249.26L107.49 249.138Z" fill="#54B435"/>
<path d="M118.221 110.81C118.362 102.472 115.397 94.3813 109.904 88.1159C104.411 81.8506 96.7855 77.8606 88.5148 76.9247C72.3815 75.0224 43.1898 72.6906 31.9075 79.0111C15.9825 87.9458 42.712 170.861 42.712 170.861H97.0898C97.0898 170.861 117.56 138.24 118.221 110.81Z" fill="#54B435"/>
<path opacity="0.08" d="M47.0607 86.1908C47.0607 86.1908 59.3107 89.5781 56.0155 108.932H71.9405L72.1977 130.091C72.3034 138.469 74.6563 146.664 79.0099 153.817C83.3635 160.971 89.5575 166.82 96.9428 170.751L97.0898 170.825H42.712L40.5805 163.903L47.0607 86.1908Z" fill="black"/>
<path d="M49.0453 95.1745C49.2892 92.5675 48.835 89.9425 47.7294 87.5698C46.6238 85.1972 44.9068 83.1627 42.7553 81.6761C40.6038 80.1895 38.0955 79.3045 35.489 79.1122C32.8825 78.9199 30.2719 79.4273 27.9263 80.5821C16.6808 86.1908 4.84725 97.3714 1.90725 119.647C-3.33575 159.276 7.55451 170.223 27.9753 158.588C41.3645 150.955 46.8525 117.388 49.0453 95.1745Z" fill="#54B435"/>
<path opacity="0.46" d="M49.0453 95.1745C49.2892 92.5675 48.835 89.9425 47.7294 87.5698C46.6238 85.1972 44.9068 83.1627 42.7553 81.6761C40.6038 80.1895 38.0955 79.3045 35.489 79.1122C32.8825 78.9199 30.2719 79.4273 27.9263 80.5821C16.6808 86.1908 4.84725 97.3714 1.90725 119.647C-3.33575 159.276 7.55451 170.223 27.9753 158.588C41.3645 150.955 46.8525 117.388 49.0453 95.1745Z" fill="white"/>
<path d="M61.5893 102.563H12.2708V163.927H61.5893V102.563Z" fill="#FFD200"/>
<path d="M27.9753 102.563C27.9753 102.563 31.4297 94.8677 38.3387 97.7641C45.2477 100.661 40.5438 109.804 27.9753 102.563Z" fill="#F4A28C"/>
<path opacity="0.58" d="M51.5443 112.946H20.4415V135.601H51.5443V112.946Z" fill="white"/>
<path d="M51.5443 142.953H20.4415V150.918H51.5443V142.953Z" fill="white"/>
<path d="M42.712 170.861L51.532 249.408H61.5893C61.5893 249.408 58.9555 190.056 74.0965 180.41C89.2375 170.763 97.0898 170.812 97.0898 170.812L42.712 170.861Z" fill="#24285B"/>
<path d="M97.0898 170.861L110.565 249.408H101.145C101.145 249.408 89.5193 191.026 61.5648 181.907C61.5893 181.87 78.237 172.751 97.0898 170.861Z" fill="#24285B"/>
<path d="M397.411 235.969H338.99V254.587H397.411V235.969Z" fill="#E6E6E6"/>
<path opacity="0.43" d="M384.634 217.756H326.214V236.374H384.634V217.756Z" fill="#E6E6E6"/>
<path opacity="0.58" d="M369.015 202.955C369.015 202.955 357.353 199.764 354.818 188.89C354.818 188.89 372.886 185.208 373.401 203.912L369.015 202.955Z" fill="#54B435"/>
<path opacity="0.73" d="M370.436 201.789C370.436 201.789 362.29 188.89 369.469 176.838C369.469 176.838 383.201 185.577 377.1 201.826L370.436 201.789Z" fill="#54B435"/>
<path d="M372.543 201.801C372.543 201.801 376.843 188.178 389.852 185.601C389.852 185.601 392.302 194.45 381.424 201.838L372.543 201.801Z" fill="#54B435"/>
<path d="M364.091 201.494L366.443 217.695L381.327 217.756L383.519 201.58L364.091 201.494Z" fill="#24285B"/>
<path d="M350.224 0.427917H180.096V255.115H350.224V0.427917Z" fill="#CCCCCC"/>
<path d="M334.997 29.4532H194.171V208.699H334.997V29.4532Z" fill="white"/>
<path opacity="0.12" d="M298.467 10.3812H250.766V16.1863H298.467V10.3812Z" fill="black"/>
<path d="M235.502 20.2118C238.98 20.2118 241.799 17.3875 241.799 13.9035C241.799 10.4196 238.98 7.59528 235.502 7.59528C232.025 7.59528 229.206 10.4196 229.206 13.9035C229.206 17.3875 232.025 20.2118 235.502 20.2118Z" fill="#E6E6E6"/>
<path d="M239.141 108.577L228.544 119.622C227.701 120.505 226.664 121.18 225.517 121.595C224.369 122.01 223.141 122.154 221.929 122.015C220.717 121.876 219.553 121.458 218.529 120.794C217.505 120.13 216.648 119.237 216.025 118.186L202.305 94.7818C201.928 94.135 201.647 93.4362 201.472 92.7077C200.872 90.2531 199.23 84.1167 197.405 83.3926C195.102 82.5335 194.526 88.2035 194.526 88.2035C194.526 88.2035 187.899 83.773 185.032 88.2035C183.317 90.8299 187.482 94.34 191.157 96.7946C194.237 98.7963 196.527 101.807 197.638 105.312C201.153 116.443 209.741 140.069 219.835 142.02C233.077 144.573 256.45 124.593 256.45 124.593L239.141 108.577Z" fill="#F4A28C"/>
<path d="M264.854 71.8806C264.854 71.8806 222.677 78.7166 227.859 107.914C231.607 129.06 242.559 127.55 242.044 143.677L241.799 153.925L286.659 152.562C286.659 152.562 283.804 132.337 289.415 117.953C295.025 103.569 310.424 68.0392 264.854 71.8806Z" fill="#54B435"/>
<path d="M274.617 46.6476L276.577 72.1261L262.477 72.1997L266.715 53.6308L274.617 46.6476Z" fill="#F4A28C"/>
<path opacity="0.09" d="M277.483 77.3175C277.483 77.3175 255.568 83.8958 262.477 102.808C269.386 121.721 280.387 133.711 269.312 139.75C258.239 145.788 241.75 153.925 241.75 153.925H279.725L288.741 144.106L296.544 115.658L277.483 77.3175Z" fill="black"/>
<path opacity="0.31" d="M265.613 57.6809C267.395 57.3815 269.052 56.5667 270.378 55.3368C270.378 55.3368 269.802 59.9759 264.253 64.161L265.613 57.6809Z" fill="#CE8172"/>
<path d="M260.468 44.4998C260.468 44.4998 259.61 52.2563 260.786 57.46C260.902 57.9627 261.115 58.4376 261.415 58.8574C261.714 59.2772 262.093 59.6337 262.53 59.9062C262.967 60.1788 263.454 60.3621 263.962 60.4457C264.47 60.5293 264.989 60.5114 265.49 60.3932C268.1 59.755 271.432 58.1473 272.399 54.0481L274.849 47.298C275.209 45.8931 275.124 44.4109 274.606 43.0564C274.089 41.702 273.163 40.5423 271.958 39.7379C267.683 36.4734 260.75 39.7625 260.468 44.4998Z" fill="#F4A28C"/>
<path d="M241.799 153.925L233.261 208.699H293.286L286.671 152.562L241.799 153.925Z" fill="#24285B"/>
<path d="M268.577 51.3726C268.577 51.3726 268.712 48.378 270.954 48.6603C273.196 48.9426 273.036 53.2872 269.974 53.5695L268.577 51.3726Z" fill="#F4A28C"/>
<path d="M260.125 49.4212L257.883 52.3667C257.75 52.5324 257.663 52.7299 257.629 52.9398C257.595 53.1496 257.616 53.3647 257.69 53.5639C257.764 53.7631 257.889 53.9396 258.052 54.0761C258.214 54.2126 258.409 54.3044 258.618 54.3426L261.583 54.9808L260.125 49.4212Z" fill="#F4A28C"/>
<path d="M270.954 48.6603C270.954 48.6603 261.595 71.6719 269.092 76.0902C276.589 80.5084 289.917 79.5389 291.718 69.7328C293.518 59.9268 283.89 57.46 283.804 43.7511C283.718 30.0423 257.405 30.9996 257.124 38.842C256.842 46.6844 270.954 48.6603 270.954 48.6603Z" fill="#24285B"/>
<path d="M277.483 77.3175C278.705 76.3055 280.127 75.5648 281.656 75.1441C283.185 74.7235 284.785 74.6325 286.352 74.8773C287.918 75.122 289.415 75.6969 290.743 76.5639C292.072 77.4309 293.201 78.5704 294.058 79.907C301.122 90.6575 304.557 103.395 303.858 116.247C302.326 143.53 308.17 160.061 279.676 153.925C258.851 149.445 233.616 115.29 233.616 115.29C233.616 115.29 225.176 109.681 231.705 101.421C238.234 93.1617 243.208 112.762 243.208 112.762C243.208 112.762 277.373 141.308 284.282 132.999C290.334 125.709 259.77 92.3395 277.483 77.3175Z" fill="#F4A28C"/>
<path d="M316.389 58.5523C322.282 58.5523 327.059 53.7663 327.059 47.8626C327.059 41.9588 322.282 37.1729 316.389 37.1729C310.496 37.1729 305.719 41.9588 305.719 47.8626C305.719 53.7663 310.496 58.5523 316.389 58.5523Z" fill="#54B435"/>
<path opacity="0.32" d="M302.571 58.5523C308.464 58.5523 313.241 53.7663 313.241 47.8626C313.241 41.9588 308.464 37.1729 302.571 37.1729C296.678 37.1729 291.901 41.9588 291.901 47.8626C291.901 53.7663 296.678 58.5523 302.571 58.5523Z" fill="#54B435"/>
<path d="M265.221 200.709C275.491 200.709 283.816 192.368 283.816 182.079C283.816 171.79 275.491 163.448 265.221 163.448C254.951 163.448 246.625 171.79 246.625 182.079C246.625 192.368 254.951 200.709 265.221 200.709Z" fill="#54B435"/>
<path d="M264.18 183.417C262.877 182.167 262.016 180.525 261.73 178.741C261.717 178.633 261.73 178.524 261.766 178.422C261.802 178.32 261.861 178.227 261.938 178.151L263.506 176.581C263.621 176.469 263.694 176.322 263.712 176.163C263.73 176.003 263.692 175.843 263.604 175.709L261.154 171.806C261.06 171.66 260.917 171.553 260.75 171.505C260.583 171.458 260.404 171.473 260.248 171.549L256.217 173.451C256.089 173.514 255.984 173.615 255.916 173.74C255.848 173.865 255.82 174.009 255.837 174.151C256.5 178.612 258.575 182.743 261.757 185.934C264.94 189.124 269.061 191.206 273.514 191.873C273.657 191.889 273.801 191.859 273.927 191.789C274.052 191.718 274.152 191.61 274.212 191.48L276.111 187.454C276.189 187.298 276.206 187.118 276.159 186.95C276.111 186.782 276.002 186.638 275.854 186.546L271.885 184.092C271.751 184.006 271.591 183.969 271.433 183.987C271.275 184.005 271.127 184.076 271.015 184.19L269.435 185.773C269.358 185.847 269.265 185.903 269.163 185.937C269.061 185.971 268.953 185.982 268.847 185.969C267.065 185.686 265.425 184.823 264.18 183.515V183.417Z" fill="white"/>
<path opacity="0.09" d="M351.228 82.7421H308.414V148.5H351.228V82.7421Z" fill="#CCCCCC"/>
<path d="M396.872 77.4402H313.241V143.198H396.872V77.4402Z" fill="#E6E6E6"/>
<path d="M396.872 70.4324H313.241V77.4402H396.872V70.4324Z" fill="#B3B3B3"/>
<path d="M344.319 79.3548L323.825 95.7268C323.825 95.7268 304.593 115.057 316.659 127.698C328.725 140.339 346.316 121.831 346.316 121.831L344.319 79.3548Z" fill="#54B435"/>
<path opacity="0.08" d="M344.319 79.3548L323.825 95.7268C323.825 95.7268 304.593 115.057 316.659 127.698C328.725 140.339 346.316 121.831 346.316 121.831L344.319 79.3548Z" fill="black"/>
<path d="M321.861 85.3193L320.002 86.7828L329.455 98.8356L331.314 97.3722L321.861 85.3193Z" fill="#24285B"/>
<path d="M323.825 95.7268C323.825 95.7268 327.01 91.959 329.877 93.1986C332.743 94.4381 331.996 100.157 326.998 100.255C322 100.354 323.825 95.7268 323.825 95.7268Z" fill="#F4A28C"/>
<path d="M353.972 54.0604C353.731 56.7734 353.859 59.5066 354.352 62.1851C354.431 62.4991 354.57 62.7945 354.763 63.0542C354.957 63.3139 355.199 63.5327 355.477 63.6981C355.755 63.8635 356.062 63.9722 356.382 64.018C356.702 64.0637 357.028 64.0456 357.341 63.9646C358.366 63.7644 359.313 63.2725 360.066 62.5477C360.82 61.823 361.35 60.896 361.592 59.8778L363.062 55.6068C363.265 54.7202 363.189 53.7925 362.844 52.9509C362.5 52.1093 361.904 51.3951 361.138 50.9063C358.382 48.9181 354.082 51.0781 353.972 54.0604Z" fill="#F4A28C"/>
<path d="M362.792 56.3799L365.267 72.2365L356.459 72.9851L358.198 61.1418L362.792 56.3799Z" fill="#F4A28C"/>
<path d="M353.85 57.1409L352.49 59.0309C352.414 59.138 352.366 59.2626 352.35 59.3933C352.334 59.5239 352.352 59.6564 352.4 59.7786C352.449 59.9008 352.528 60.0087 352.629 60.0925C352.73 60.1763 352.851 60.2333 352.98 60.2582L354.842 60.6141L353.85 57.1409Z" fill="#F4A28C"/>
<path opacity="0.31" d="M357.708 63.7192C358.808 63.4462 359.804 62.8576 360.575 62.0255C360.237 64.3224 359.037 66.4033 357.219 67.8429L357.708 63.7192Z" fill="#CE8172"/>
<path d="M337.386 143.039H371.171C381.902 126.114 406.133 81.0607 366.59 72.2365L355.565 73.1693C355.565 73.1693 333.809 79.5757 334.678 100.071C335.438 116.591 336.859 136.105 337.386 143.039Z" fill="#54B435"/>
<path opacity="0.08" d="M337.398 143.039H370.804C375.434 133.478 389.718 100.084 371.208 85.3562C368.108 87.0816 365.559 89.6517 363.858 92.7686C362.156 95.8856 361.37 99.4219 361.592 102.968C362.314 115.425 360.269 119.892 347.443 118.456C334.617 117.02 335.965 122.592 335.965 122.592L337.398 143.039Z" fill="black"/>
<path d="M353.85 47.7889C353.85 47.7889 351.094 54.5636 356.459 55.1526C361.825 55.7417 358.431 59.3745 361.592 59.9145C364.752 60.4545 368.354 52.7717 365.267 48.8689C362.18 44.9662 355.393 44.6716 353.85 47.7889Z" fill="#24285B"/>
<path d="M367.68 89.3817C367.488 87.7273 367.809 86.0537 368.601 84.589C369.392 83.1242 370.615 81.9395 372.103 81.1963C373.591 80.453 375.271 80.1873 376.915 80.4354C378.559 80.6834 380.086 81.4332 381.29 82.5825C388.82 89.7672 393.524 99.4233 394.544 109.791C397.742 136.534 388.346 162.835 347.039 120.346L351.24 115.437C351.24 115.437 371.771 129.637 377.835 127.207C382.478 125.39 369.542 106.159 367.68 89.3817Z" fill="#54B435"/>
<path opacity="0.46" d="M367.68 89.3817C367.488 87.7273 367.809 86.0537 368.601 84.589C369.392 83.1242 370.615 81.9395 372.103 81.1963C373.591 80.453 375.271 80.1873 376.915 80.4354C378.559 80.6834 380.086 81.4332 381.29 82.5825C388.82 89.7672 393.524 99.4233 394.544 109.791C397.742 136.534 388.346 162.835 347.039 120.346L351.24 115.437C351.24 115.437 371.771 129.637 377.835 127.207C382.478 125.39 369.542 106.159 367.68 89.3817Z" fill="white"/>
<path d="M345.558 95.0113L323.816 97.767L327.832 129.57L349.574 126.815L345.558 95.0113Z" fill="#FFD200"/>
<path d="M348.129 119.045C348.129 119.045 339.627 114.934 341.698 111.841C343.768 108.748 351.24 115.437 351.24 115.437L348.129 119.045Z" fill="#F4A28C"/>
<path opacity="0.09" d="M234.045 166.468H180.316V223.058H234.045V166.468Z" fill="#CCCCCC"/>
<path d="M227.663 159.718H155.682V216.308H227.663V159.718Z" fill="#E6E6E6"/>
<path d="M227.663 152.501H155.682V159.73H227.663V152.501Z" fill="#B3B3B3"/>
<path d="M169.475 216.32L167.148 188.497C167.148 188.497 178.54 186.976 179.557 187.27C180.181 187.43 180.328 203.814 180.341 216.345L169.475 216.32Z" fill="#F4A28C"/>
<path d="M189.369 147.334C189.369 147.334 193.73 143.959 196.915 146.598C200.1 149.237 197.417 159.202 204.718 157.214C204.718 157.214 196.609 163.35 191.611 152.501L189.369 147.334Z" fill="#24285B"/>
<path d="M192.407 154.391C192.407 154.391 195.286 154.109 194.281 150.157C193.277 146.205 190.031 146.205 189.063 147.187L192.407 154.391Z" fill="#54B435"/>
<path d="M183.967 151.887C184.079 153.785 184.445 155.66 185.057 157.459C185.143 157.668 185.269 157.858 185.428 158.017C185.588 158.177 185.777 158.303 185.986 158.389C186.194 158.474 186.418 158.518 186.643 158.516C186.869 158.515 187.091 158.468 187.299 158.38C187.986 158.136 188.589 157.7 189.036 157.124C189.483 156.548 189.756 155.855 189.822 155.128L190.398 152.035C190.448 151.4 190.301 150.766 189.976 150.218C189.651 149.671 189.165 149.238 188.585 148.979C188.093 148.756 187.553 148.658 187.014 148.695C186.475 148.732 185.953 148.902 185.496 149.19C185.038 149.478 184.659 149.875 184.393 150.346C184.126 150.817 183.979 151.346 183.967 151.887Z" fill="#F4A28C"/>
<path d="M191.023 153.802L192.738 164.86L186.588 165.375L187.777 157.324L191.023 153.802Z" fill="#F4A28C"/>
<path d="M184.175 154.035L183.428 155.471C183.384 155.552 183.361 155.643 183.362 155.734C183.363 155.826 183.387 155.917 183.433 155.996C183.478 156.076 183.543 156.143 183.622 156.191C183.7 156.239 183.789 156.265 183.881 156.269H185.216L184.175 154.035Z" fill="#F4A28C"/>
<path opacity="0.31" d="M187.74 157.558C188.472 157.364 189.137 156.973 189.663 156.428C189.799 157.183 189.639 157.962 189.217 158.602C188.795 159.242 188.143 159.694 187.397 159.865L187.74 157.558Z" fill="#CE8172"/>
<path d="M190.79 153.851C190.79 153.851 190.619 152.538 191.611 152.501C192.603 152.464 192.836 154.342 191.611 154.71L190.79 153.851Z" fill="#F4A28C"/>
<path d="M184.653 151.63C185.744 151.738 186.846 151.659 187.911 151.397C187.911 151.397 188.867 155.078 191.929 155.876C191.929 155.876 194.379 150.034 190.704 148.083C187.654 146.451 185.375 144.978 183.121 147.322C182.792 147.664 182.564 148.091 182.464 148.556C182.364 149.02 182.395 149.504 182.554 149.951C182.713 150.399 182.994 150.793 183.365 151.09C183.736 151.386 184.182 151.573 184.653 151.63Z" fill="#24285B"/>
<path d="M187.997 153.409C187.997 153.409 187.997 151.887 189.222 152.035C190.447 152.182 190.557 153.962 189.087 154.759L187.997 153.409Z" fill="#F4A28C"/>
<path d="M173.885 216.32L173.358 209.791C173.148 207.339 172.228 205.002 170.712 203.065C152.778 179.747 186.637 165.375 186.637 165.375L192.762 164.86C225.984 172.334 213.587 201.679 204.902 216.32H173.885Z" fill="#54B435"/>
<path opacity="0.08" d="M173.885 216.32L173.53 211.325C173.53 211.325 175.698 202.476 186.245 209.815C196.793 217.155 202.709 208.686 193.595 198.267C191.031 195.512 189.473 191.969 189.175 188.214C188.877 184.459 189.856 180.713 191.954 177.587L216.834 203.09L210.549 216.32H173.885Z" fill="black"/>
<path d="M220.153 216.32H186.405C183.36 214.163 180.436 211.84 177.646 209.361C174.522 208.515 173.064 203.225 175.686 202.489C178.307 201.752 179.839 205.962 179.839 205.962C179.839 205.962 200.725 220.395 206.874 212.221C208.773 209.693 206.519 205.655 204.829 202.403C201.766 196.622 192.039 186.558 191.978 177.55C191.978 170.186 200.639 166.198 206.397 170.788C214.188 176.924 225.139 187.417 220.864 213.043C220.689 214.148 220.452 215.242 220.153 216.32Z" fill="#F4A28C"/>
<path d="M195.114 165.449C195.114 165.449 196.082 162.847 191.231 162.074C186.38 161.301 182.386 163.203 183.881 166.725C183.832 166.725 187.372 169.83 195.114 165.449Z" fill="#54B435"/>
<path opacity="0.46" d="M195.114 165.449C195.114 165.449 196.082 162.847 191.231 162.074C186.38 161.301 182.386 163.203 183.881 166.725C183.832 166.725 187.372 169.83 195.114 165.449Z" fill="white"/>
<path opacity="0.09" d="M265.16 244.437C271.993 244.437 277.532 238.888 277.532 232.042C277.532 225.196 271.993 219.646 265.16 219.646C258.327 219.646 252.787 225.196 252.787 232.042C252.787 238.888 258.327 244.437 265.16 244.437Z" fill="black"/>
</svg>
