<svg width="24" height="24" viewBox="0 0 24 24" fill="none" xmlns="http://www.w3.org/2000/svg">
<g clip-path="url(#clip0_45_130)">
<path d="M12.0037 7.95683C9.73225 7.95683 7.90011 9.76035 7.90011 11.9963C7.90011 14.2322 9.73225 16.0357 12.0037 16.0357C14.2751 16.0357 16.1073 14.2322 16.1073 11.9963C16.1073 9.76035 14.2751 7.95683 12.0037 7.95683ZM12.0037 14.6225C10.5358 14.6225 9.33583 13.4447 9.33583 11.9963C9.33583 10.5478 10.5323 9.37011 12.0037 9.37011C13.4751 9.37011 14.6715 10.5478 14.6715 11.9963C14.6715 13.4447 13.4715 14.6225 12.0037 14.6225V14.6225ZM17.2322 7.7916C17.2322 8.31543 16.8037 8.73379 16.2751 8.73379C15.743 8.73379 15.318 8.31191 15.318 7.7916C15.318 7.27129 15.7465 6.84941 16.2751 6.84941C16.8037 6.84941 17.2322 7.27129 17.2322 7.7916ZM19.9501 8.74785C19.8894 7.48574 19.5965 6.36777 18.6572 5.44668C17.7215 4.52559 16.5858 4.2373 15.3037 4.17402C13.9823 4.1002 10.0215 4.1002 8.70011 4.17402C7.42154 4.23379 6.28583 4.52207 5.34654 5.44316C4.40726 6.36426 4.11797 7.48222 4.05369 8.74433C3.97869 10.0451 3.97869 13.9439 4.05369 15.2447C4.1144 16.5068 4.40726 17.6248 5.34654 18.5459C6.28583 19.467 7.41797 19.7553 8.70011 19.8185C10.0215 19.8924 13.9823 19.8924 15.3037 19.8185C16.5858 19.7588 17.7215 19.4705 18.6572 18.5459C19.593 17.6248 19.8858 16.5068 19.9501 15.2447C20.0251 13.9439 20.0251 10.0486 19.9501 8.74785V8.74785ZM18.243 16.6404C17.9644 17.3295 17.4251 17.8603 16.7215 18.1381C15.668 18.5494 13.168 18.4545 12.0037 18.4545C10.8394 18.4545 8.33583 18.5459 7.28583 18.1381C6.58583 17.8639 6.04654 17.333 5.7644 16.6404C5.34654 15.6033 5.44297 13.1424 5.44297 11.9963C5.44297 10.8502 5.35011 8.38574 5.7644 7.35215C6.04297 6.66308 6.58226 6.13223 7.28583 5.85449C8.3394 5.44316 10.8394 5.53809 12.0037 5.53809C13.168 5.53809 15.6715 5.44668 16.7215 5.85449C17.4215 6.12871 17.9608 6.65957 18.243 7.35215C18.6608 8.38926 18.5644 10.8502 18.5644 11.9963C18.5644 13.1424 18.6608 15.6068 18.243 16.6404Z" fill="white"/>
</g>
<defs>
<clipPath id="clip0_45_130">
<rect width="16" height="18" fill="white" transform="translate(4.00012 3)"/>
</clipPath>
</defs>
</svg>
