<svg width="219" height="219" viewBox="0 0 219 219" fill="none" xmlns="http://www.w3.org/2000/svg">
<path d="M0 24.3333V194.667C0 208.05 10.8283 219 24.3333 219H194.667C208.05 219 219 208.05 219 194.667V24.3333C219 10.95 208.05 0 194.667 0H24.3333C10.8283 0 0 10.95 0 24.3333ZM146 73C146 93.1967 129.697 109.5 109.5 109.5C89.3033 109.5 73 93.1967 73 73C73 52.8033 89.3033 36.5 109.5 36.5C129.697 36.5 146 52.8033 146 73ZM36.5 170.333C36.5 146 85.1667 132.617 109.5 132.617C133.833 132.617 182.5 146 182.5 170.333V182.5H36.5V170.333Z" fill="white"/>
</svg>
