<svg width="15" height="16" viewBox="0 0 15 16" fill="none" xmlns="http://www.w3.org/2000/svg">
<path d="M3.125 10.1123C3.78099 10.1104 4.41216 9.86132 4.89275 9.41481L9.58775 12.0976C9.26256 13.3683 9.91961 14.685 11.1305 15.1892C12.3413 15.6934 13.7387 15.2322 14.4116 14.1063C15.0844 12.9803 14.8285 11.5312 13.8108 10.7037C12.7931 9.87623 11.3222 9.92142 10.3572 10.8098L5.66225 8.12706C5.71147 7.93884 5.73865 7.74555 5.74325 7.55106L10.3565 4.91481C11.2722 5.74726 12.6458 5.82444 13.649 5.09981C14.6521 4.37518 15.0105 3.04689 14.508 1.916C14.0055 0.785106 12.7795 0.160859 11.5693 0.419729C10.3592 0.6786 9.49587 1.7498 9.5 2.98731C9.50268 3.20337 9.53215 3.41826 9.58775 3.62706L5.32475 6.06231C4.64187 5.00587 3.30554 4.58237 2.13883 5.05266C0.97212 5.52295 0.303041 6.7548 0.543694 7.9895C0.784346 9.22419 1.86707 10.1146 3.125 10.1123Z" fill="#FF6F3C"/>
</svg>
