<svg width="229" height="129" viewBox="0 0 229 129" fill="none" xmlns="http://www.w3.org/2000/svg">
<path d="M173.473 -180.5C180.653 -180.5 186.506 -186.325 186.157 -193.496C183.315 -251.845 161.394 -307.79 123.575 -352.628C82.9563 -400.786 26.6156 -433.027 -35.4825 -443.65C-97.5806 -454.274 -161.435 -442.594 -215.752 -410.677C-270.069 -378.761 -311.349 -328.663 -332.291 -269.246C-353.234 -209.828 -352.488 -144.919 -330.188 -85.9975C-307.887 -27.0763 -265.468 22.0602 -210.432 52.7216C-155.397 83.383 -91.2914 93.5936 -29.4535 81.5477C28.1217 70.3322 80.277 40.4955 119.077 -3.1763C123.846 -8.54361 122.939 -16.7513 117.346 -21.2531L56.1967 -70.4722C50.6036 -74.974 42.4561 -74.0477 37.5217 -68.8324C14.3072 -44.296 -16.0678 -27.5205 -49.4337 -21.0209C-87.0675 -13.6899 -126.081 -19.904 -159.575 -38.5641C-193.069 -57.2243 -218.885 -87.1282 -232.457 -122.987C-246.029 -158.846 -246.482 -198.349 -233.737 -234.51C-220.992 -270.67 -195.869 -301.159 -162.813 -320.583C-129.756 -340.007 -90.895 -347.115 -53.1029 -340.65C-15.3107 -334.185 18.9775 -314.563 43.6976 -285.255C65.6143 -259.271 78.7579 -227.157 81.4571 -193.487C82.0309 -186.33 87.7971 -180.5 94.9767 -180.5H173.473Z" fill="#FFC93C"/>
<path d="M206.547 -180.5C207.204 -180.5 207.737 -181.034 207.734 -181.691C207.455 -249.286 183.427 -314.648 139.829 -366.338C95.9749 -418.331 35.1469 -453.14 -31.8971 -464.609C-98.941 -476.079 -167.881 -463.469 -226.524 -429.01C-285.168 -394.551 -329.735 -340.464 -352.346 -276.314C-374.956 -212.164 -374.151 -142.085 -350.074 -78.4708C-325.998 -14.8568 -280.2 38.1932 -220.781 71.2967C-161.362 104.4 -92.1509 115.424 -25.3879 102.419C40.9855 89.4893 100.687 53.6385 143.288 1.15683C143.702 0.646637 143.622 -0.103241 143.11 -0.515289C142.598 -0.927307 141.849 -0.845428 141.434 -0.335266C99.1856 51.709 39.9793 87.261 -25.8429 100.083C-92.0547 112.981 -160.695 102.048 -219.623 69.2179C-278.551 36.3878 -323.971 -16.2243 -347.849 -79.3131C-371.727 -142.402 -372.525 -211.903 -350.101 -275.523C-327.678 -339.143 -283.478 -392.784 -225.319 -426.958C-167.16 -461.133 -98.7888 -473.638 -32.2983 -462.264C34.1922 -450.889 94.5179 -416.367 138.01 -364.803C181.246 -313.543 205.076 -248.724 205.355 -181.691C205.357 -181.034 205.89 -180.5 206.547 -180.5Z" fill="#FFC93C"/>
<path d="M227.722 -180.5C228.428 -180.5 229 -181.072 228.997 -181.778C228.796 -230.473 217.108 -278.441 194.874 -321.778C172.446 -365.494 139.932 -403.242 100.022 -431.901C60.1111 -460.559 13.9512 -479.303 -34.6402 -486.584C-83.2316 -493.864 -132.858 -489.471 -179.415 -473.768C-225.972 -458.065 -268.121 -431.503 -302.377 -396.28C-336.632 -361.056 -362.01 -318.183 -376.41 -271.207C-390.81 -224.231 -393.818 -174.501 -385.187 -126.131C-376.631 -78.1811 -356.879 -32.9332 -327.546 5.93619C-327.121 6.49939 -326.319 6.60828 -325.758 6.18091C-325.196 5.75357 -325.088 4.95184 -325.513 4.38861C-354.601 -34.158 -374.187 -79.0293 -382.672 -126.58C-391.232 -174.551 -388.248 -223.87 -373.967 -270.458C-359.686 -317.047 -334.518 -359.566 -300.545 -394.498C-266.572 -429.431 -224.771 -455.773 -178.598 -471.347C-132.426 -486.92 -83.2091 -491.277 -35.0188 -484.057C13.1715 -476.836 58.9503 -458.247 98.5312 -429.825C138.112 -401.403 170.358 -363.967 192.601 -320.611C214.649 -277.635 226.241 -230.068 226.442 -181.778C226.445 -181.072 227.017 -180.5 227.722 -180.5Z" fill="#FFC93C"/>
</svg>
