<svg width="130" height="272" viewBox="0 0 130 272" fill="none" xmlns="http://www.w3.org/2000/svg">
<path d="M563.473 -37.5C570.653 -37.5 576.506 -43.3247 576.157 -50.4959C573.315 -108.845 551.394 -164.79 513.575 -209.628C472.956 -257.786 416.616 -290.027 354.518 -300.65C292.419 -311.274 228.565 -299.594 174.248 -267.677C119.931 -235.761 78.6508 -185.663 57.7086 -126.246C36.7664 -66.8281 37.5115 -1.9187 59.8122 57.0025C82.1128 115.924 124.532 165.06 179.568 195.722C234.603 226.383 298.709 236.594 360.547 224.548C418.122 213.332 470.277 183.496 509.077 139.824C513.846 134.456 512.939 126.249 507.346 121.747L446.197 72.5278C440.604 68.026 432.456 68.9523 427.522 74.1676C404.307 98.704 373.932 115.479 340.566 121.979C302.933 129.31 263.919 123.096 230.425 104.436C196.931 85.7757 171.115 55.8718 157.543 20.0131C143.971 -15.8456 143.518 -55.3487 156.263 -91.5096C169.008 -127.67 194.131 -158.159 227.187 -177.583C260.244 -197.007 299.105 -204.115 336.897 -197.65C374.689 -191.185 408.978 -171.563 433.698 -142.255C455.614 -116.271 468.758 -84.1569 471.457 -50.487C472.031 -43.3303 477.797 -37.5 484.977 -37.5H563.473Z" fill="#FFC93C"/>
<path d="M596.547 -37.5C597.204 -37.5 597.737 -38.0337 597.734 -38.6908C597.455 -106.286 573.427 -171.648 529.829 -223.338C485.975 -275.331 425.147 -310.14 358.103 -321.609C291.059 -333.079 222.119 -320.469 163.476 -286.01C104.832 -251.551 60.2645 -197.464 37.6543 -133.314C15.0442 -69.164 15.8487 0.915161 39.9255 64.5292C64.0023 128.143 109.8 181.193 169.219 214.297C228.638 247.4 297.849 258.424 364.612 245.419C430.985 232.489 490.687 196.639 533.288 144.157C533.702 143.647 533.622 142.897 533.11 142.485C532.598 142.073 531.849 142.155 531.434 142.665C489.186 194.709 429.979 230.261 364.157 243.083C297.945 255.981 229.305 245.048 170.377 212.218C111.449 179.388 66.029 126.776 42.151 63.6869C18.273 0.598022 17.4751 -68.9026 39.8986 -132.523C62.3221 -196.143 106.522 -249.784 164.681 -283.958C222.84 -318.133 291.211 -330.638 357.702 -319.264C424.192 -307.889 484.518 -273.367 528.01 -221.803C571.246 -170.543 595.076 -105.724 595.354 -38.6908C595.357 -38.0337 595.89 -37.5 596.547 -37.5Z" fill="#FFC93C"/>
<path d="M617.722 -37.5C618.428 -37.5 619 -38.0724 618.997 -38.778C618.796 -87.4733 607.108 -135.441 584.874 -178.778C562.446 -222.494 529.932 -260.242 490.022 -288.901C450.111 -317.559 403.951 -336.303 355.36 -343.584C306.768 -350.864 257.142 -346.471 210.585 -330.768C164.028 -315.065 121.879 -288.503 87.6232 -253.28C53.3676 -218.056 27.9904 -175.183 13.5904 -128.207C-0.80951 -81.2309 -3.81836 -31.5012 4.81277 16.8686C13.3691 64.8189 33.1206 110.067 62.4539 148.936C62.8789 149.499 63.6809 149.608 64.2424 149.181C64.8038 148.754 64.9121 147.952 64.487 147.389C35.3994 108.842 15.8132 63.9707 7.32818 16.4197C-1.23169 -31.5507 1.75232 -80.8698 16.0334 -127.458C30.3145 -174.047 55.4822 -216.566 89.4549 -251.498C123.428 -286.431 165.229 -312.773 211.402 -328.347C257.574 -343.92 306.791 -348.277 354.981 -341.057C403.171 -333.836 448.95 -315.247 488.531 -286.825C528.112 -258.403 560.358 -220.967 582.601 -177.611C604.649 -134.635 616.241 -87.0677 616.442 -38.778C616.445 -38.0724 617.017 -37.5 617.722 -37.5Z" fill="#FFC93C"/>
</svg>
