<svg width="24" height="24" viewBox="0 0 24 24" fill="none" xmlns="http://www.w3.org/2000/svg">
<g clip-path="url(#clip0_45_138)">
<path d="M20.9998 6.7049C20.3258 6.98937 19.6108 7.1761 18.8788 7.25887C19.6413 6.82346 20.2268 6.13398 20.5025 5.31247C19.7776 5.72228 18.9845 6.01101 18.1575 6.1662C17.4838 5.48248 16.5241 5.05518 15.4619 5.05518C13.4224 5.05518 11.7689 6.63041 11.7689 8.57326C11.7689 8.84904 11.8016 9.11752 11.8645 9.37508C8.79539 9.22831 6.0743 7.82771 4.25286 5.69918C3.93504 6.21878 3.75293 6.82319 3.75293 7.46786C3.75293 8.68848 4.40494 9.76527 5.39579 10.3962C4.80934 10.3787 4.2358 10.2278 3.72305 9.95611C3.72284 9.97085 3.72284 9.98559 3.72284 10.0004C3.72284 11.705 4.99578 13.1269 6.68511 13.4501C6.1413 13.591 5.57088 13.6117 5.01743 13.5104C5.48733 14.9082 6.85118 15.9253 8.46711 15.9537C7.20324 16.8973 5.61087 17.4598 3.88076 17.4598C3.58264 17.4598 3.28873 17.4431 2.99982 17.4106C4.63409 18.4088 6.57521 18.9913 8.66068 18.9913C15.4534 18.9913 19.1678 13.6303 19.1678 8.98127C19.1678 8.82868 19.1642 8.67695 19.1571 8.5261C19.88 8.02819 20.5041 7.41147 20.9998 6.7049" fill="white"/>
</g>
<defs>
<clipPath id="clip0_45_138">
<rect width="18" height="14" fill="white" transform="translate(2.99982 5)"/>
</clipPath>
</defs>
</svg>
