<?xml version="1.0" standalone="no"?>
<!DOCTYPE svg PUBLIC "-//W3C//DTD SVG 20010904//EN"
 "http://www.w3.org/TR/2001/REC-SVG-20010904/DTD/svg10.dtd">
<svg version="1.0" xmlns="http://www.w3.org/2000/svg"
 width="500.000000pt" height="500.000000pt" viewBox="0 0 500.000000 500.000000"
 preserveAspectRatio="xMidYMid meet">

<g transform="translate(0.000000,500.000000) scale(0.100000,-0.100000)"
fill="#000000" stroke="none">
<path d="M1580 3318 l0 -465 283 -171 c155 -94 360 -218 455 -276 l172 -105 0
463 0 462 -432 264 c-238 145 -443 270 -455 278 l-23 14 0 -464z"/>
<path d="M650 1752 l0 -537 253 -154 c138 -85 343 -210 455 -278 l202 -123 0
538 0 538 -247 150 c-137 83 -341 208 -455 277 l-208 127 0 -538z"/>
<path d="M2500 1753 l1 -538 420 -255 c231 -140 438 -266 460 -279 l39 -23 0
538 -1 539 -411 250 c-226 138 -433 263 -460 278 l-48 29 0 -539z"/>
</g>
</svg>
